<svg xmlns="http://www.w3.org/2000/svg" viewBox="0 0 234.78 226.38"><defs><style>.cls-1{fill:#ff0;}.cls-2{fill:#1d1d1b;}</style></defs><title>icon_place</title><g id="Слой_2" data-name="Слой 2"><g id="Слой_1-2" data-name="Слой 1"><circle class="cls-1" cx="131.36" cy="115.22" r="47.47"/><path class="cls-2" d="M233.11,56.48a4.07,4.07,0,0,0-3.64-.55L181.32,72c4.12-9.49,6.21-17.2,6.21-23a49,49,0,0,0-98,0,40,40,0,0,0,1.59,10.3L80.91,55.94a2,2,0,0,0-.56-.11,3.83,3.83,0,0,0-1.47,0,2.08,2.08,0,0,0-.55.1L2.77,81.12A4,4,0,0,0,0,85V222.34a4,4,0,0,0,5.32,3.84l74.29-24.77,74.56,24.86h0a4.51,4.51,0,0,0,1,.11,4.32,4.32,0,0,0,.95-.11h.18l.26-.13L232,201a4,4,0,0,0,2.76-3.83V59.73A4,4,0,0,0,233.11,56.48ZM8.09,216.74V87.86L75.57,65.37V194.24Zm75.56-22.5V65.37l10.71,3.56c10,24.82,32.68,56.28,37.17,62.38l1.54,2.11a6.74,6.74,0,0,0,10.86,0l1.56-2.12c.7-1,2.77-3.79,5.65-7.92v93.35Zm72.35-91c-1.54,2.41-3.08,4.77-4.57,7-5.77,8.68-10.4,15-11.69,16.79l-1.23,1.68-1.24-1.68c-2.54-3.46-25.06-34.43-35.44-58.73-.79-1.86-1.52-3.71-2.16-5.47-2-5.62-3.05-10.28-3.05-13.87a41.89,41.89,0,0,1,83.78,0c0,6.13-2.89,15.1-8.58,26.67-.89,1.81-1.89,3.75-3,5.77C165.31,88.14,161,95.48,156,103.29Zm70.71,91-67.49,22.5V111.41a333.14,333.14,0,0,0,17.29-29.32l50.2-16.73Z"/><path class="cls-2" d="M138.5,30.67a22.23,22.23,0,1,0,22.23,22.22A22.25,22.25,0,0,0,138.5,30.67Zm0,37.32a15.1,15.1,0,1,1,15.1-15.1A15.11,15.11,0,0,1,138.5,68Z"/></g></g></svg>