<svg xmlns="http://www.w3.org/2000/svg" viewBox="0 0 224.77 164.66"><defs><style>.cls-1{fill:#ff0;}.cls-2{fill:#1d1d1b;}</style></defs><title>icon_services</title><g id="Слой_2" data-name="Слой 2"><g id="Слой_1-2" data-name="Слой 1"><circle class="cls-1" cx="114.93" cy="67.78" r="40.33"/><path class="cls-2" d="M217.72,74.17H207a3,3,0,0,1-2.1-5.08l7.59-7.59a7,7,0,0,0,2.06-5,7.08,7.08,0,0,0-2.06-5l-9.68-9.67a7.24,7.24,0,0,0-10,0l-7.59,7.59a3,3,0,0,1-5.07-2.1V36.6a7.05,7.05,0,0,0-7-7H159.42a7.05,7.05,0,0,0-7,7V47.34a3,3,0,0,1-5.08,2.1l-7.59-7.59a7.2,7.2,0,0,0-10,0L120,51.52a7.07,7.07,0,0,0,0,10l7.59,7.59a2.87,2.87,0,0,1,.64,3.25,1.34,1.34,0,0,1-.12.24c1.31,1.9,2.55,3.81,3.72,5.75a9.58,9.58,0,0,0,2.45-3.5,9.34,9.34,0,0,0-2.06-10.37l-7.58-7.58a.53.53,0,0,1,0-.73l9.66-9.66a.54.54,0,0,1,.74,0l7.58,7.58a9.52,9.52,0,0,0,16.25-6.72V36.6a.5.5,0,0,1,.51-.5H173.1a.51.51,0,0,1,.51.5V47.34a9.53,9.53,0,0,0,16.25,6.74l7.59-7.6a.53.53,0,0,1,.72,0l9.67,9.69a.47.47,0,0,1,.15.35.5.5,0,0,1-.16.36l-7.58,7.58A9.53,9.53,0,0,0,207,80.72h10.76a.49.49,0,0,1,.33.14.51.51,0,0,1,.16.36V94.9a.52.52,0,0,1-.51.51H207a9.52,9.52,0,0,0-6.73,16.25l7.59,7.6a.48.48,0,0,1,.15.34.52.52,0,0,1-.16.37l-9.66,9.66a.52.52,0,0,1-.37.16.45.45,0,0,1-.35-.16L189.86,122a9.52,9.52,0,0,0-16.25,6.73v10.74a.52.52,0,0,1-.51.51H159.42a.52.52,0,0,1-.51-.51V128.78A9.36,9.36,0,0,0,153,120a9.57,9.57,0,0,0-3.7-.76,9.29,9.29,0,0,0-3,.49c.28,2.43.46,4.88.55,7.33l.37-.37a3,3,0,0,1,5.08,2.1v10.74a7.06,7.06,0,0,0,7,7H173.1a7.06,7.06,0,0,0,7-7V128.78a3,3,0,0,1,5.07-2.1l7.59,7.59a7.24,7.24,0,0,0,10,0l9.68-9.68a7.07,7.07,0,0,0,0-10L204.88,107A3,3,0,0,1,207,102h10.74a7.06,7.06,0,0,0,7-7.05V81.22A7.06,7.06,0,0,0,217.72,74.17Z"/><path class="cls-2" d="M166.26,67.78a20.28,20.28,0,1,0,20.27,20.28A20.31,20.31,0,0,0,166.26,67.78Zm0,34A13.72,13.72,0,1,1,180,88.06,13.74,13.74,0,0,1,166.26,101.78Z"/><path class="cls-2" d="M133,94.58a118.17,118.17,0,0,0-17.87-28.66,132.53,132.53,0,0,0-22.9-21.76l-.7-.52L109.61,10.1A3.1,3.1,0,0,0,109,6.38C104.65,2.08,100,0,94.9,0c-4.84,0-9.4,1.92-13,3.46l-.33.13c-3.09,1.27-6,2.47-8.51,2.47a6.29,6.29,0,0,1-2.34-.41C62.54,2.68,56.29.83,50.31.83c-7.45,0-13.85,3-20.14,9.47a3.18,3.18,0,0,0-.37,4L49.38,43.83l-.76.57A135.5,135.5,0,0,0,26,65.92,119.15,119.15,0,0,0,8.16,94.58,97.15,97.15,0,0,0,0,133.4a31.29,31.29,0,0,0,31.25,31.26h78.66a31.29,31.29,0,0,0,31.25-31.26A97.15,97.15,0,0,0,133,94.58ZM36.52,12.88l.66-.57c4.2-3.62,8.25-5.23,13.13-5.23,5.13,0,10.76,1.71,18.19,4.46a13.08,13.08,0,0,0,4.47.77c3.94,0,7.83-1.63,11.26-3.07,3.69-1.55,7.15-3,10.64-3a11.93,11.93,0,0,1,7.26,2.47l.73.51L85.52,41.44H55.42Zm91,138.12a24.69,24.69,0,0,1-17.64,7.34H31.25A25,25,0,0,1,6.31,133.4c0-22.43,8.2-43.71,24.38-63.25A128.21,128.21,0,0,1,54.41,47.94l.26-.18H86.41l.26.17A125.46,125.46,0,0,1,110.4,70.15c16.18,19.5,24.38,40.78,24.38,63.25A24.61,24.61,0,0,1,127.55,151Z"/><path class="cls-2" d="M62.32,84.17h16c8,0,13.65,5.37,13.65,13.65s-5.68,13.84-13.65,13.84H68.44v16.12H62.32Zm15,22.17c5.19,0,8.46-3.27,8.46-8.52s-3.27-8.34-8.4-8.34h-9v16.86Z"/><rect class="cls-2" x="56.01" y="106.34" width="12.43" height="5.14"/><rect class="cls-2" x="56.01" y="115.47" width="25.25" height="5.14"/></g></g></svg>