<svg xmlns="http://www.w3.org/2000/svg" viewBox="0 0 49.48 49.65"><defs><style>.cls-1{fill:#4e6d70;}</style></defs><title>icon_phone2</title><g id="Слой_2" data-name="Слой 2"><g id="Режим_изоляции" data-name="Режим изоляции"><path class="cls-1" d="M41.66,29.6a5.19,5.19,0,0,0-3.76-1.72,5.36,5.36,0,0,0-3.81,1.72l-3.52,3.51-.86-.45c-.4-.2-.78-.39-1.1-.59a38.22,38.22,0,0,1-9.16-8.35,22.58,22.58,0,0,1-3-4.74c.91-.83,1.76-1.7,2.58-2.54l.93-1a5.11,5.11,0,0,0,0-7.7l-3-3c-.35-.35-.7-.7-1-1.06L13.8,1.6A5.27,5.27,0,0,0,10.07,0,5.45,5.45,0,0,0,6.29,1.6h0L2.48,5.47A8.14,8.14,0,0,0,0,10.6a19.51,19.51,0,0,0,1.42,8.26A47.93,47.93,0,0,0,10,33.11,52.38,52.38,0,0,0,27.44,46.76a27.18,27.18,0,0,0,9.79,2.89h.7a8.38,8.38,0,0,0,6.42-2.76v-.06a25.33,25.33,0,0,1,2-2c.48-.46,1-.93,1.45-1.44a5.55,5.55,0,0,0,1.73-3.79,5.35,5.35,0,0,0-1.71-3.82Zm4,11.72h0c-.43.47-.88.89-1.36,1.36a29.34,29.34,0,0,0-2.15,2.23A5.36,5.36,0,0,1,38,46.68h-.51a24.15,24.15,0,0,1-8.68-2.6A49.45,49.45,0,0,1,12.33,31.2a45.19,45.19,0,0,1-8-13.34,15.9,15.9,0,0,1-1.25-7A5.11,5.11,0,0,1,4.61,7.6L8.4,3.8A2.53,2.53,0,0,1,10.09,3a2.38,2.38,0,0,1,1.62.78h0c.68.63,1.32,1.29,2,2l1.06,1.08,3,3a2.12,2.12,0,0,1,0,3.45c-.32.32-.63.65-1,1-.94,1-1.83,1.85-2.79,2.72l-.06.06a2.27,2.27,0,0,0-.45,2.5v.1a24.4,24.4,0,0,0,3.62,5.9h0a40.84,40.84,0,0,0,9.93,9,15.09,15.09,0,0,0,1.37.75c.4.2.78.39,1.1.59l.13.08a2.42,2.42,0,0,0,1.1.28,2.38,2.38,0,0,0,1.69-.77l3.81-3.81a2.52,2.52,0,0,1,1.68-.83,2.27,2.27,0,0,1,1.6.81h0l6.13,6.13a2.2,2.2,0,0,1,0,3.48Z"/></g></g></svg>