<svg xmlns="http://www.w3.org/2000/svg" viewBox="0 0 248.54 248.55"><defs><style>.cls-1{fill:#484748;}</style></defs><title>icon_phone0</title><g id="Слой_2" data-name="Слой 2"><g id="Слой_1-2" data-name="Слой 1"><path class="cls-1" d="M209,155.49c-9-8.87-20.2-8.87-29.12,0-6.81,6.75-13.62,13.5-20.31,20.37-1.83,1.89-3.38,2.29-5.61,1-4.41-2.4-9.1-4.35-13.33-7-19.74-12.41-36.27-28.38-50.92-46.34C82.47,114.63,76,105.08,71.49,94.33c-.92-2.17-.75-3.6,1-5.38C79.33,82.37,86,75.62,92.66,68.86,102,59.48,102,48.5,92.6,39.06c-5.32-5.38-10.64-10.64-16-16C71.15,17.54,65.71,12,60.16,6.56,51.18-2.2,40-2.2,31,6.62c-6.86,6.75-13.45,13.67-20.42,20.31A33.17,33.17,0,0,0,.2,49.3C-.89,63.54,2.6,77,7.52,90.09c10.07,27.12,25.4,51.21,44,73.29a272.24,272.24,0,0,0,90.17,70.55c15.79,7.67,32.15,13.56,49.95,14.53,12.24.69,22.89-2.4,31.41-12,5.84-6.52,12.41-12.47,18.59-18.71,9.15-9.27,9.21-20.48.11-29.64q-16.3-16.39-32.73-32.67Zm0,0"/></g></g></svg>