<svg xmlns="http://www.w3.org/2000/svg" viewBox="0 0 147.87 184.59"><defs><style>.cls-1{fill:#ff0;}.cls-2{fill:#1d1d1b;}</style></defs><title>icon_recomendations</title><g id="Слой_2" data-name="Слой 2"><g id="Слой_1-2" data-name="Слой 1"><circle class="cls-1" cx="49.11" cy="80.05" r="40.33"/><path class="cls-2" d="M147.72,60.07,132.57,44.92V.5a.5.5,0,0,0-.5-.5H.5A.5.5,0,0,0,0,.5V168.79a.5.5,0,0,0,.5.5H15.3v14.8a.5.5,0,0,0,.5.5H147.37a.5.5,0,0,0,.5-.5V60.43A.49.49,0,0,0,147.72,60.07Zm-12-1.94H105V27.45ZM15.3,15.8V162.16H7.11V7.13H125.46V37.81L103.09,15.44a.5.5,0,0,0-.35-.14H15.8A.5.5,0,0,0,15.3,15.8ZM140.76,177.46H22.41v-155h75.5V64.76a.5.5,0,0,0,.5.5h42.35Z"/><path class="cls-2" d="M123.4,153.49a3.57,3.57,0,0,1-3.57,3.57H43.34a3.56,3.56,0,1,1,0-7.13h76.49A3.57,3.57,0,0,1,123.4,153.49Z"/><path class="cls-2" d="M123.4,129a3.55,3.55,0,0,1-3.57,3.54H43.34a3.55,3.55,0,1,1,0-7.1h76.49A3.57,3.57,0,0,1,123.4,129Z"/><path class="cls-2" d="M123.4,104.53a3.57,3.57,0,0,1-3.57,3.56H43.34a3.56,3.56,0,1,1,0-7.12h76.49A3.56,3.56,0,0,1,123.4,104.53Z"/><path class="cls-2" d="M123.4,80.06a3.57,3.57,0,0,1-3.57,3.56H43.34a3.57,3.57,0,1,1,0-7.13h76.49A3.57,3.57,0,0,1,123.4,80.06Z"/><path class="cls-2" d="M77.5,55.57a3.57,3.57,0,0,1-3.57,3.56H43.34a3.56,3.56,0,1,1,0-7.11H73.93A3.56,3.56,0,0,1,77.5,55.57Z"/></g></g></svg>