<svg xmlns="http://www.w3.org/2000/svg" viewBox="0 0 167.19 154.65"><defs><style>.cls-1{fill:#ff0;}</style></defs><title>icon_3_2</title><g id="Слой_2" data-name="Слой 2"><g id="Слой_1-2" data-name="Слой 1"><circle class="cls-1" cx="78.26" cy="73.26" r="60.11"/><path d="M70,125.86a14.39,14.39,0,1,0,14.4,14.4A14.41,14.41,0,0,0,70,125.86Zm0,21.3a6.9,6.9,0,1,1,6.9-6.9A6.91,6.91,0,0,1,70,147.16Z"/><path d="M121.85,125.86a14.39,14.39,0,1,0,14.39,14.4A14.41,14.41,0,0,0,121.85,125.86Zm0,21.3a6.9,6.9,0,1,1,6.9-6.9A6.91,6.91,0,0,1,121.85,147.16Z"/><path d="M125.49,48.48H66.4a3.38,3.38,0,1,0,0,6.75h59.09a3.38,3.38,0,0,0,0-6.75Z"/><path d="M122.27,69.9H69.61a3.37,3.37,0,1,0,0,6.74h52.66a3.37,3.37,0,1,0,0-6.74Z"/><path d="M165.42,29.6h0a7.85,7.85,0,0,0-6.11-2.89H30.57L27.92,13.8a7.9,7.9,0,0,0-4.58-5.63L5.24.32A3.64,3.64,0,0,0,2.37.27a3.74,3.74,0,0,0-.11,6.92l18.27,7.94,0,.19,20,96.84a7.93,7.93,0,0,0,7.72,6.29H147a3.75,3.75,0,0,0,0-7.5H47.93L45.35,98.42H147.78a7.9,7.9,0,0,0,7.71-6.28l11.53-56A7.82,7.82,0,0,0,165.42,29.6ZM148.09,90.92H43.8L32.12,34.19H159.77Z"/></g></g></svg>