<svg xmlns="http://www.w3.org/2000/svg" viewBox="0 0 260.8 176.93"><defs><style>.cls-1{fill:#ff0;}.cls-2{fill:#1d1d1b;}</style></defs><title>icon_delivery</title><g id="Слой_2" data-name="Слой 2"><g id="Слой_1-2" data-name="Слой 1"><circle class="cls-1" cx="81.46" cy="81.07" r="40.33"/><path class="cls-2" d="M214.08,131.34a22.93,22.93,0,0,0-16.22,6.7,22.48,22.48,0,0,0,0,32.2,23.08,23.08,0,0,0,16.22,6.69,22.8,22.8,0,0,0,0-45.59Zm0,37.56a14.76,14.76,0,1,1,0-29.52,14.76,14.76,0,0,1,0,29.52ZM235.55,65.11,219.37,50.55a3.85,3.85,0,0,0-2.66-1H189.18a4,4,0,0,0-4,4v44a4,4,0,0,0,4,4h43.68a4,4,0,0,0,4-4V68.08A4,4,0,0,0,235.55,65.11Zm-6.71,28.41H193.2v-36h21.93l13.71,12.34ZM83,131.34A23,23,0,0,0,66.83,138a22.48,22.48,0,0,0,0,32.2A23.12,23.12,0,0,0,83,176.93a22.8,22.8,0,0,0,0-45.59Zm0,37.56a14.76,14.76,0,1,1,0-29.52,14.76,14.76,0,0,1,0,29.52Zm-35.78-31H35.13V122.32a4,4,0,0,0-8,0V142a4,4,0,0,0,4,4H47.27a4,4,0,0,0,0-8Zm21.83-34.6H4a4,4,0,1,0,0,8H69.1a4,4,0,1,0,0-8ZM82.93,80.17A3.91,3.91,0,0,0,80.1,79L15,78.6a4,4,0,0,0-2.93,6.85,4,4,0,0,0,2.83,1.18h0L80,87a4.07,4.07,0,0,0,4.06-4A3.91,3.91,0,0,0,82.93,80.17Zm8-25.93H25.86a4,4,0,1,0,0,8H90.94a4,4,0,1,0,0-8Zm168.37,3.18L220.89,25.6a3.93,3.93,0,0,0-2.57-.92H171.79V4a4,4,0,0,0-4-4H31.11a4,4,0,0,0-4,4V43.29a4,4,0,0,0,8,0V8H163.81V137.94H118.47a4,4,0,1,0,0,8H184a4,4,0,0,0,0-8H171.84V32.71h45.08l.38.31L252.78,62.4V63l-.38,74.8h-6.92a4,4,0,1,0,0,8h10.89a4,4,0,0,0,4-4l.43-81.35A4.25,4.25,0,0,0,259.31,57.42Z"/></g></g></svg>