<svg xmlns="http://www.w3.org/2000/svg" viewBox="0 0 310.45 202.43"><defs><style>.cls-1{fill:#ff0;}.cls-2{fill:#1d1d1b;}</style></defs><title>icon_1_2</title><g id="Слой_2" data-name="Слой 2"><g id="Слой_1-2" data-name="Слой 1"><circle class="cls-1" cx="129.12" cy="97.46" r="60.11"/><path class="cls-2" d="M209.25,39.62,130.73,12.53a30.41,30.41,0,0,0-22.89,1.4l-3.94,1.91a22.23,22.23,0,0,1-17.23,1l-6.74-2.42a7.31,7.31,0,0,0-1-.51L38.8.2a3.88,3.88,0,0,0-2.92.19A3.75,3.75,0,0,0,34,2.55L.21,101a3.81,3.81,0,0,0,2.35,4.83l40.24,13.8a3,3,0,0,0,1.27.25,3.7,3.7,0,0,0,1.65-.38,3.77,3.77,0,0,0,1.91-2.16L80.13,22.64l4.07,1.46a30.18,30.18,0,0,0,23.14-1.34l3.94-1.91a22.36,22.36,0,0,1,17-1.08l75.59,26.07c-.57,3.31-2.16,8.77-6.3,11.64-3.69,2.54-9,2.67-15.77.32l-33-11.25a3.93,3.93,0,0,0-3.05.25,4,4,0,0,0-1.91,2.42c-.07.19-5,18.25-20.22,26.39-9.66,5.21-21.61,5.4-35.54.63a3.8,3.8,0,0,0-2.48,7.19,65.36,65.36,0,0,0,21,3.81,42.56,42.56,0,0,0,20.6-5c13.61-7.31,20.15-20.66,22.63-27.27l29.31,10c9.22,3.18,16.78,2.73,22.63-1.27,9.41-6.48,9.86-19.84,9.92-20.41a3.78,3.78,0,0,0-2.54-3.69ZM41.73,111.2,8.67,99.89,39.95,8.65l32.17,11,.76.38.13.07Zm0,0"/><path class="cls-2" d="M310.08,96,264.18,2.74A3.77,3.77,0,0,0,262,.83a3.88,3.88,0,0,0-2.92.19L220.88,19.72a3.83,3.83,0,0,0-1.78,5.08l44.5,90.91-14.94,13.67a178.88,178.88,0,0,1-42.41,28.93L133.08,194.1a8.21,8.21,0,0,1-6.48.38,8.65,8.65,0,0,1-4.9-4.32,8.21,8.21,0,0,1-.38-6.49,8.62,8.62,0,0,1,4.32-4.9l40.88-20a3.81,3.81,0,1,0-3.3-6.86l-40,19.58-20.16,9.86a8.5,8.5,0,0,1-7.5-15.26l58.74-28.74a3.81,3.81,0,1,0-3.31-6.87l-43.48,21.3L92.27,159.2l-7.18,3.5a8.5,8.5,0,0,1-7.5-15.26l7.25-3.56,52.58-25.75a3.81,3.81,0,0,0-3.31-6.87L100.34,127.8,81.53,137a8.21,8.21,0,0,1-6.48.38,8.62,8.62,0,0,1-4.9-4.32,8.2,8.2,0,0,1-.38-6.48,8.62,8.62,0,0,1,4.32-4.9L102,108a3.81,3.81,0,1,0-3.31-6.86L70.78,114.83a16.17,16.17,0,0,0-7.44,21.61,15.88,15.88,0,0,0,6.8,7.06,16.11,16.11,0,0,0,11.31,27.59c.7,0,1.4-.07,2.1-.13a16.34,16.34,0,0,0,1.4,9.73,16.09,16.09,0,0,0,14.49,9,15.74,15.74,0,0,0,7.06-1.65l6.93-3.43a15.37,15.37,0,0,0,1.59,8.71,16.15,16.15,0,0,0,9.28,8.2,16.64,16.64,0,0,0,5.28.89,16.2,16.2,0,0,0,7.06-1.65L209.82,165A185.69,185.69,0,0,0,254,134.79l16.59-15.26,37.7-18.44A3.83,3.83,0,0,0,310.08,96ZM270,111.52l-42.4-86.65L259,9.54,301.37,96.2Zm0,0"/></g></g></svg>