<svg xmlns="http://www.w3.org/2000/svg" viewBox="0 0 218 218"><defs><style>.cls-1{fill:#ff0;}</style></defs><title>icon_3_1</title><g id="Слой_2" data-name="Слой 2"><g id="Слой_1-2" data-name="Слой 1"><circle class="cls-1" cx="150.93" cy="132.06" r="60.11"/><path d="M214.51,170.61H186.59V123.55l.89-.09c17.51-1.94,26-16.22,26-43.66,0-27.08-10.74-79.8-30.42-79.8s-30.44,52.72-30.44,79.8c0,27.42,8.53,41.7,26.06,43.66l.89.1v47.05h-29V106.75a3.43,3.43,0,0,0-2.44-3.31L4.53,58.53a3.47,3.47,0,0,0-1-.16,3.56,3.56,0,0,0-2.08.68A3.52,3.52,0,0,0,0,61.85V214.5A3.5,3.5,0,0,0,3.49,218h211a3.46,3.46,0,0,0,3.49-3.5V174.1A3.49,3.49,0,0,0,214.51,170.61Zm-99.77-70.32,29,9v61.28h-29ZM78.81,89.06l28.94,9.05v72.5H78.81ZM42.9,77.84l28.94,9v83.73H42.9ZM7,66.61l28.92,9v95H7ZM121.24,211H7V177.6H121.24Zm58.36,0H128.2V177.6h51.4Zm-20-131.24C159.64,46.46,172.35,7,183.09,7s23.45,39.47,23.45,72.81c0,32.75-12.53,36.95-23.45,36.95S159.64,112.55,159.64,79.8ZM211,211H186.59V177.6H211Z"/></g></g></svg>