<svg xmlns="http://www.w3.org/2000/svg" viewBox="0 0 256.13 241.03"><defs><style>.cls-1{fill:#ff0;}.cls-2{fill:#1d1d1b;}</style></defs><title>icon_1_1</title><g id="Слой_2" data-name="Слой 2"><g id="Слой_1-2" data-name="Слой 1"><circle class="cls-1" cx="180" cy="60.11" r="60.11"/><path class="cls-2" d="M252.34,233.45h-.5V66.32H201.43V233.45H187.56V100.62H137.15V233.45H123.28V134.89H72.87v98.56H59v-60H8.59v60H3.79a3.79,3.79,0,1,0,0,7.58H252.34a3.79,3.79,0,0,0,0-7.58Zm-200.9,0H16.14V181h35.3Zm64.28,0H80.42v-91h35.3Zm64.28,0H144.7V108.18H180Zm64.29,0H209V73.9h35.3Z"/><path class="cls-2" d="M204.66,13.53a2.2,2.2,0,0,0-.09-.62,3.72,3.72,0,0,0-.09-.51l-.12-.2-.06-.09a2,2,0,0,1-.09-.28,3.27,3.27,0,0,1-.23-.29l-.08-.12a1.14,1.14,0,0,0-.15-.23l-.14-.11-.21-.19a3.16,3.16,0,0,0-.34-.28l-.16-.12-.17-.1-.13-.09-.13-.08h-.05l-.17,0-.11,0a2,2,0,0,0-.58-.15l-.22-.08L164.6,6.35l-.37,0a3.79,3.79,0,0,0-.37,7.56l24.92,2.41L32,106.81a3.8,3.8,0,0,0,1.91,7.08,3.66,3.66,0,0,0,1.87-.52L192.59,22.86,182.21,45.67a3.8,3.8,0,0,0,1.87,5,4.13,4.13,0,0,0,1.57.33,3.76,3.76,0,0,0,3.46-2.22l15.26-33.54s0,0,0-.06a2.5,2.5,0,0,1,.07-.26,3.65,3.65,0,0,0,.16-.59,1.83,1.83,0,0,1,.07-.25.4.4,0,0,0,0-.16A2.81,2.81,0,0,0,204.66,13.53Z"/></g></g></svg>