<svg xmlns="http://www.w3.org/2000/svg" viewBox="0 0 52.3 52.3"><defs><style>.cls-1{fill:#1d1d1b;}</style></defs><title>icon_settings</title><g id="Слой_2" data-name="Слой 2"><g id="Слой_1-2" data-name="Слой 1"><path class="cls-1" d="M52.14,23.25A1.7,1.7,0,0,0,50.46,22a5.77,5.77,0,0,1-4-10,1.45,1.45,0,0,0,.16-2,25.84,25.84,0,0,0-4.14-4.18,1.46,1.46,0,0,0-2,.16A6,6,0,0,1,34,7.38,5.81,5.81,0,0,1,30.48,1.7,1.45,1.45,0,0,0,29.2.17a26.15,26.15,0,0,0-5.88,0A1.46,1.46,0,0,0,22,1.66a5.82,5.82,0,0,1-3.58,5.58A6,6,0,0,1,12,5.76a1.46,1.46,0,0,0-2-.17A26,26,0,0,0,5.76,9.78a1.45,1.45,0,0,0,.16,2,5.8,5.8,0,0,1,1.46,6.53,6,6,0,0,1-5.69,3.54A1.42,1.42,0,0,0,.18,23.11a26.19,26.19,0,0,0,0,5.95,1.73,1.73,0,0,0,1.72,1.29,5.73,5.73,0,0,1,5.38,3.58A5.82,5.82,0,0,1,5.8,40.39a1.45,1.45,0,0,0-.16,2,26,26,0,0,0,4.14,4.18,1.45,1.45,0,0,0,2-.16,6,6,0,0,1,6.52-1.47,5.8,5.8,0,0,1,3.54,5.68,1.45,1.45,0,0,0,1.28,1.53,26,26,0,0,0,5.88,0,1.46,1.46,0,0,0,1.3-1.5,5.81,5.81,0,0,1,3.58-5.58,6,6,0,0,1,6.48,1.47,1.46,1.46,0,0,0,2,.17,26,26,0,0,0,4.23-4.18,1.45,1.45,0,0,0-.16-2A5.8,5.8,0,0,1,44.92,34a5.86,5.86,0,0,1,5.35-3.55h.32a1.46,1.46,0,0,0,1.53-1.28,26.22,26.22,0,0,0,0-5.95ZM26.19,34.93a8.72,8.72,0,1,1,8.72-8.72,8.73,8.73,0,0,1-8.72,8.72Zm0,0"/></g></g></svg>