<svg xmlns="http://www.w3.org/2000/svg" viewBox="0 0 177.7 177.7"><defs><style>.cls-1{fill:#ff0;}</style></defs><title>icon_4_1</title><g id="Слой_2" data-name="Слой 2"><g id="Слой_1-2" data-name="Слой 1"><circle class="cls-1" cx="88.54" cy="103.73" r="54.11"/><path d="M102.78,36a20.73,20.73,0,1,0-27.87,0,26.69,26.69,0,0,0-21.6,26.16V74a3,3,0,0,0,3,3h65.15a3,3,0,0,0,3-3V62.19A26.69,26.69,0,0,0,102.78,36ZM74,20.73A14.81,14.81,0,1,1,88.85,35.54,14.82,14.82,0,0,1,74,20.73Zm44.42,50.35H59.23V62.19A20.76,20.76,0,0,1,80,41.46H97.73a20.76,20.76,0,0,1,20.73,20.73Zm0,0"/><path d="M49.48,136.73a20.73,20.73,0,1,0-27.88,0A26.69,26.69,0,0,0,0,162.89v11.85a3,3,0,0,0,3,3H68.12a3,3,0,0,0,3-3V162.89a26.69,26.69,0,0,0-21.6-26.16Zm-28.74-15.3a14.81,14.81,0,1,1,14.81,14.81,14.82,14.82,0,0,1-14.81-14.81Zm44.42,50.35H5.92v-8.88a20.76,20.76,0,0,1,20.73-20.73H44.42a20.76,20.76,0,0,1,20.73,20.73Zm0,0"/><path d="M156.09,136.73a20.73,20.73,0,1,0-27.88,0,26.69,26.69,0,0,0-21.6,26.16v11.85a3,3,0,0,0,3,3h65.16a3,3,0,0,0,3-3V162.89a26.69,26.69,0,0,0-21.6-26.16Zm-28.75-15.3a14.81,14.81,0,1,1,14.81,14.81,14.83,14.83,0,0,1-14.81-14.81Zm44.42,50.35H112.54v-8.88a20.76,20.76,0,0,1,20.73-20.73H151a20.76,20.76,0,0,1,20.73,20.73Zm0,0"/><path d="M163.23,100.25a2.5,2.5,0,0,1-2.5-2.5,71.91,71.91,0,0,0-37.54-63.17,2.5,2.5,0,1,1,2.39-4.39,76.91,76.91,0,0,1,40.15,67.56A2.5,2.5,0,0,1,163.23,100.25Z"/><path d="M88.84,167.78a64.8,64.8,0,0,1-10.54-.63,2.5,2.5,0,0,1,.74-4.94,59.85,59.85,0,0,0,9.79.57,92.58,92.58,0,0,0,9.29-.47,2.5,2.5,0,0,1,.57,5A95.83,95.83,0,0,1,88.84,167.78Z"/><path d="M14.46,100.25a2.5,2.5,0,0,1-2.5-2.5A76.89,76.89,0,0,1,52.2,30.15a2.5,2.5,0,0,1,2.39,4.39A71.9,71.9,0,0,0,17,97.75,2.5,2.5,0,0,1,14.46,100.25Z"/></g></g></svg>