<svg xmlns="http://www.w3.org/2000/svg" viewBox="0 0 116.8 84.17"><defs><style>.cls-1{fill:#474747;}</style></defs><title>icon_email1</title><g id="Слой_2" data-name="Слой 2"><g id="Слой_1-2" data-name="Слой 1"><path class="cls-1" d="M11.21,24.82Q13.43,26.19,24.57,33T41.65,43.39l2.77,1.74q2.12,1.35,3.52,2.17c.93.56,2.06,1.17,3.39,1.86a21,21,0,0,0,3.75,1.54,11.7,11.7,0,0,0,3.26.51h.13a11.7,11.7,0,0,0,3.26-.51,21.35,21.35,0,0,0,3.75-1.54c1.32-.69,2.45-1.31,3.39-1.86S71,46,72.38,45.14l2.77-1.74,30.5-18.58a29.29,29.29,0,0,0,7.95-7,13.89,13.89,0,0,0,3.2-8.63,8.28,8.28,0,0,0-3.1-6.46A10.81,10.81,0,0,0,106.37,0H10.43q-5,0-7.73,3A10.63,10.63,0,0,0,0,10.41Q0,14,3.59,18.21a30.76,30.76,0,0,0,7.63,6.6Zm0,0"/><path class="cls-1" d="M110.28,34.6Q88.91,47.29,77.82,54.32q-3.71,2.41-6,3.74a38.86,38.86,0,0,1-6.16,2.74,21,21,0,0,1-7.17,1.4h-.13a21,21,0,0,1-7.17-1.4A39.09,39.09,0,0,1,45,58.07q-2.31-1.34-6-3.74Q30.17,48.66,6.58,34.6a33.73,33.73,0,0,1-6.58-5V75a8.31,8.31,0,0,0,3.06,6.46,10.79,10.79,0,0,0,7.37,2.69h95.94a10.79,10.79,0,0,0,7.37-2.69A8.3,8.3,0,0,0,116.8,75V29.62a35.16,35.16,0,0,1-6.52,5Zm0,0"/></g></g></svg>