<svg xmlns="http://www.w3.org/2000/svg" viewBox="0 0 246.92 246.92"><defs><style>.cls-1{fill:none;stroke:#f7e83b;stroke-miterlimit:10;stroke-width:13px;}.cls-2{fill:#333;}.cls-3{fill:#ff0;}</style></defs><title>icon_phone1</title><g id="Слой_2" data-name="Слой 2"><g id="Слой_1-2" data-name="Слой 1"><rect class="cls-1" x="6.5" y="6.5" width="233.92" height="233.92" rx="116.96" ry="116.96"/><rect class="cls-2" x="52.42" y="53.66" width="144.5" height="139"/><path class="cls-3" d="M123.46,6.5a117,117,0,1,0,117,117,117,117,0,0,0-117-117Zm61.76,170.66-9.36,9.37c-1.67,1.67-6.57,2.71-6.73,2.71A110.46,110.46,0,0,1,57.67,77.52s1.07-4.77,2.74-6.42l9.36-9.36A15.63,15.63,0,0,1,84.4,58.27l2,.66c4.6,1.54,9.43,6.62,10.7,11.31l4.71,17.29c1.27,4.7-.44,11.38-3.87,14.81l-6.25,6.25a66.42,66.42,0,0,0,46.7,46.72L144.6,149c3.44-3.44,10.12-5.15,14.81-3.89l17.29,4.73A18.52,18.52,0,0,1,188,160.57l.66,2c1.53,4.6,0,11.18-3.44,14.59Zm0,0"/></g></g></svg>