<svg xmlns="http://www.w3.org/2000/svg" viewBox="0 0 250.92 250.92"><defs><style>.cls-1{fill:#343434;}.cls-2{fill:none;stroke:#f8e93c;stroke-miterlimit:10;stroke-width:17px;}.cls-3{fill:#f4e600;}</style></defs><title>icon_mail1</title><g id="Слой_2" data-name="Слой 2"><g id="Слой_1-2" data-name="Слой 1"><rect class="cls-1" x="46.46" y="44.2" width="153" height="139"/><rect class="cls-2" x="8.5" y="8.5" width="233.92" height="233.92" rx="116.96" ry="116.96"/><path class="cls-3" d="M125.46,5.46a120,120,0,1,0,120,120,120,120,0,0,0-120-120Zm0,42.15,71,44.28h-142Zm71.89,115h0a12.85,12.85,0,0,1-12.86,12.86H66.43A12.86,12.86,0,0,1,53.57,162.6V94.71a12.89,12.89,0,0,1,.2-2.2l67.85,42.31.26.13.27.14a7,7,0,0,0,1.48.57l.16,0a7.43,7.43,0,0,0,1.67.21h0a7.24,7.24,0,0,0,1.68-.21l.16,0a7.07,7.07,0,0,0,1.48-.57l.27-.14.26-.13,67.84-42.31a12.76,12.76,0,0,1,.2,2.2Zm0,0"/></g></g></svg>