<svg xmlns="http://www.w3.org/2000/svg" viewBox="0 0 40.07 56.98"><defs><style>.cls-1{fill:#4e6d70;}</style></defs><title>icon_place2</title><g id="Слой_2" data-name="Слой 2"><g id="Слой_1-2" data-name="Слой 1"><path class="cls-1" d="M20,0A20,20,0,0,0,3,30.57l15.9,25.63a1.67,1.67,0,0,0,1.42.79h0a1.67,1.67,0,0,0,1.42-.81L37.24,30.3A20,20,0,0,0,20,0ZM34.37,28.58,20.29,52.11,5.83,28.81a16.7,16.7,0,1,1,28.55-.23Zm0,0"/><path class="cls-1" d="M20,10A10,10,0,1,0,30,20,10,10,0,0,0,20,10Zm0,16.72A6.7,6.7,0,1,1,26.72,20,6.7,6.7,0,0,1,20,26.73Zm0,0"/></g></g></svg>