<svg xmlns="http://www.w3.org/2000/svg" viewBox="0 0 158.92 160.54"><defs><style>.cls-1{fill:#ff0;}</style></defs><title>icon_2_1</title><g id="Слой_2" data-name="Слой 2"><g id="Слой_1-2" data-name="Слой 1"><circle class="cls-1" cx="84.42" cy="78.8" r="60.11"/><path d="M158.92,74.78h-7.7V39.35a15.42,15.42,0,0,0-15.4-15.4H125.38L114.71,4.75a9.25,9.25,0,0,0-12.57-3.59l-41,22.78H15.4A15.42,15.42,0,0,0,0,39.35V145.13a15.42,15.42,0,0,0,15.4,15.4H135.82a15.42,15.42,0,0,0,15.4-15.4V114.06h7.7ZM135.82,30.11A9.22,9.22,0,0,1,145,38.33H133.38l-4.57-8.22ZM105.14,6.55a3.14,3.14,0,0,1,4.19,1.2l17,30.58H48Zm39.92,138.58a9.25,9.25,0,0,1-9.24,9.24H15.4a9.25,9.25,0,0,1-9.24-9.24V39.35a9.25,9.25,0,0,1,9.24-9.24H50.09L35.31,38.33h-18a3.08,3.08,0,0,0,0,6.16H145.06v30.3H122.53a19,19,0,0,0-19,19v1.32a19,19,0,0,0,19,19h22.53Zm7.7-37.23H122.53a12.83,12.83,0,0,1-12.82-12.82V93.76a12.83,12.83,0,0,1,12.82-12.82h30.23ZM132,94.68a6.8,6.8,0,1,1-6.8-6.8,6.8,6.8,0,0,1,6.8,6.8Zm0,0"/></g></g></svg>