<svg xmlns="http://www.w3.org/2000/svg" viewBox="0 0 176.69 176.5"><defs><style>.cls-1{fill:#ff0;}.cls-2{fill:#1d1d1b;}</style></defs><title>icon_guarantee</title><g id="Слой_2" data-name="Слой 2"><g id="Слой_1-2" data-name="Слой 1"><circle class="cls-1" cx="69.35" cy="56.1" r="40.33"/><path class="cls-2" d="M88.15,176.5a3.49,3.49,0,0,1-2.13-.72L68.26,162.14,46.21,165.2A3.5,3.5,0,0,1,42.48,163l-8.23-20.76L13.49,134a3.5,3.5,0,0,1-2.18-3.73l3-22.05L.72,90.48a3.5,3.5,0,0,1,0-4.27L14.55,68.27,11.5,46.21a3.5,3.5,0,0,1,2.18-3.73l20.76-8.23,8.23-20.76a3.5,3.5,0,0,1,3.73-2.18l22.05,3.05L86.21.72a3.5,3.5,0,0,1,4.27,0l17.95,13.82,22.05-3a3.5,3.5,0,0,1,3.73,2.18l8.23,20.76,20.76,8.24a3.5,3.5,0,0,1,2.18,3.73l-3.05,22.05L176,86.22a3.5,3.5,0,0,1,0,4.31l-14,17.55,3,22a3.5,3.5,0,0,1-2.15,3.72l-20.78,8.42L133.83,163a3.5,3.5,0,0,1-3.73,2.18L108,162.14,90.28,175.78A3.49,3.49,0,0,1,88.15,176.5ZM69.23,155a3.5,3.5,0,0,1,2.13.72l16.79,12.89,16.79-12.89a3.5,3.5,0,0,1,2.61-.69l20.78,2.88,7.78-19.62a3.5,3.5,0,0,1,1.94-2l19.64-8-2.87-20.8a3.5,3.5,0,0,1,.73-2.66l13.2-16.59L155.89,71.56A3.5,3.5,0,0,1,155.2,69l2.88-20.78-19.62-7.78a3.5,3.5,0,0,1-2-2l-7.78-19.61-20.78,2.87a3.49,3.49,0,0,1-2.61-.69l-17-13.07L71.56,20.8a3.51,3.51,0,0,1-2.61.69L48.16,18.62,40.39,38.24a3.5,3.5,0,0,1-2,2L18.81,48l2.88,20.78A3.5,3.5,0,0,1,21,71.38l-13.07,17L20.8,105.13a3.5,3.5,0,0,1,.69,2.61l-2.87,20.78,19.61,7.78a3.5,3.5,0,0,1,2,2L48,157.88,68.75,155A3.44,3.44,0,0,1,69.23,155Z"/><path class="cls-2" d="M93.28,63.06a22.47,22.47,0,0,1,9.52,2l-2.21,5.87a17.64,17.64,0,0,0-7-1.59C84.72,69.34,80,77.62,79,85.7h.14c2.07-2.76,6.49-4.55,10.76-4.55,9.25,0,15.39,6.9,15.39,16.08,0,9.38-6.55,16.21-15.66,16.21-10.35,0-18.22-9.11-18.22-22.91C71.41,78,78.24,63.06,93.28,63.06Zm5.24,34.16c0-6.07-3.73-10.35-10-10.35-5.11,0-9.94,2.76-9.94,7.18,0,5.24,4.28,13.11,11.25,13.11C95.07,107.16,98.52,102.81,98.52,97.22Z"/></g></g></svg>