<svg xmlns="http://www.w3.org/2000/svg" viewBox="0 0 218.37 163.67"><defs><style>.cls-1{fill:#ff0;}</style></defs><title>icon_4_2</title><g id="Слой_2" data-name="Слой 2"><g id="Слой_1-2" data-name="Слой 1"><circle class="cls-1" cx="106.38" cy="85.93" r="40.78"/><path d="M197.68,21.85C184.19,10.54,166.24,4.32,147.15,4.32A84.29,84.29,0,0,0,125.89,7l-.94.24L124,6.91A100.93,100.93,0,0,0,87,0h0C63.68,0,41.78,7.58,25.3,21.33,9,35,0,53,0,72.13,0,93,10.87,112.82,29.82,126.5l1.24.9v36.27l37.74-21,1,.17A105.31,105.31,0,0,0,87,144.26c23.07,0,44.82-7.46,61.26-21l.79-.65,1,0a84.55,84.55,0,0,0,10.74-1l1-.17,31.32,17.43V108.68l1.23-.9c15.26-11.2,24-27.35,24-44.3C218.37,47.81,211,33,197.68,21.85Zm-65.3,104.89A93.56,93.56,0,0,1,87,138.15a98.82,98.82,0,0,1-18.13-1.69l-1.09-.2-30.59,17V124.14l-1.36-.9C16.93,110.62,6.1,92,6.1,72.13c0-36.4,36.28-66,80.88-66A98,98,0,0,1,107.65,8.3L115.58,10l-7.14,3.86c-20.35,11-32.51,29.55-32.51,49.61,0,27.39,23.36,51.66,55.55,57.69l8.18,1.54Zm56-22.23-1.36.91v23L162.85,115l-1.08.2a79.87,79.87,0,0,1-14.62,1.36l-1,0h-.54c-16.93-.33-32.82-5.92-44.75-15.74C88.72,90.77,82,77.53,82,63.48c0-22,16.29-41.43,41.5-49.44a77.47,77.47,0,0,1,19.51-3.5c1.54-.08,2.85-.12,4.1-.12,35.91,0,65.12,23.8,65.12,53.06C212.27,79.41,203.57,94.37,188.39,104.51Z"/></g></g></svg>