<svg xmlns="http://www.w3.org/2000/svg" viewBox="0 0 61.28 56.48"><defs><style>.cls-1{fill:#322b2c;}</style></defs><title>icon_moneymaking</title><g id="Слой_2" data-name="Слой 2"><g id="Слой_1-2" data-name="Слой 1"><path class="cls-1" d="M45,43.57a5.33,5.33,0,0,1-5.33-5.32V29.4A5.33,5.33,0,0,1,45,24.07H59.12V15.27A4.11,4.11,0,0,0,55,11.16H4.11A4.11,4.11,0,0,0,0,15.27v37.1a4.11,4.11,0,0,0,4.11,4.11H55a4.11,4.11,0,0,0,4.11-4.11V43.56H45Zm0,0"/><path class="cls-1" d="M58.87,27H45a2.41,2.41,0,0,0-2.41,2.41v8.84A2.41,2.41,0,0,0,45,40.65H58.87a2.41,2.41,0,0,0,2.41-2.41V29.4A2.41,2.41,0,0,0,58.87,27Zm-9.09,10.3a3.47,3.47,0,1,1,3.47-3.47,3.47,3.47,0,0,1-3.47,3.47Zm0,0"/><path class="cls-1" d="M47.87,3.64A5.3,5.3,0,0,0,41.17.27L20.31,7.16H49Zm0,0"/></g></g></svg>