<svg xmlns="http://www.w3.org/2000/svg" viewBox="0 0 182.92 182.93"><defs><style>.cls-1{fill:#ff0;}.cls-2{fill:#1d1d1b;}</style></defs><title>icon_refund</title><g id="Слой_2" data-name="Слой 2"><g id="Слой_1-2" data-name="Слой 1"><circle class="cls-1" cx="48.27" cy="93.63" r="40.33"/><path class="cls-2" d="M1,1A3.57,3.57,0,0,0,0,3.57V179.35a3.57,3.57,0,0,0,3.57,3.57H111.42a18,18,0,0,0,11.83-4.43l4.25-3.71a10.73,10.73,0,0,0,10.4,8.14h34.3a10.73,10.73,0,0,0,10.72-10.72V114a10.73,10.73,0,0,0-10.72-10.72h-34.3a10.72,10.72,0,0,0-8.85,4.68L113.87,92.75l17.55-65.51a3.57,3.57,0,0,0-2.53-4.38L95,13.79V3.58A3.57,3.57,0,0,0,91.46,0H3.57A3.58,3.58,0,0,0,1,1ZM134.33,114a3.58,3.58,0,0,1,3.57-3.57h13.58v41.16a3.57,3.57,0,0,0,7.15,0V110.4H172.2a3.58,3.58,0,0,1,3.57,3.57v58.24a3.58,3.58,0,0,1-3.57,3.57h-34.3a3.58,3.58,0,0,1-3.57-3.57Zm-27.51-22.5a3.55,3.55,0,0,0-.6,1.25l-3.69,14.46H95.36l13.92-51.57a3.57,3.57,0,0,0-2.52-4.38A9.63,9.63,0,0,1,100,39.45a3.57,3.57,0,0,0-2.53-4.38L95,34.43V21.19l28.57,7.65ZM95,50.81a16.74,16.74,0,0,0,6.52,6L95,81V50.81Zm-51.33,125a5,5,0,1,1,0-10H71a3.57,3.57,0,0,0,0-7.15H31.52a5,5,0,0,1,0-10H71a3.57,3.57,0,1,0,0-7.15H23.87a5,5,0,0,1,0-10H71a3.57,3.57,0,1,0,0-7.15h-36a5,5,0,1,1,0-10H105.3a3.57,3.57,0,0,0,3.46-2.69l2.83-11.07,15.6,15.6v49.41l-8.63,7.53a10.86,10.86,0,0,1-7.14,2.67ZM7.15,7.15H87.89v100h-7V36.06a3.57,3.57,0,0,0-3.57-3.57,9.63,9.63,0,0,1-9.62-9.62,3.57,3.57,0,0,0-3.57-3.57H30.89a3.57,3.57,0,0,0-3.57,3.57,9.63,9.63,0,0,1-9.62,9.62,3.57,3.57,0,0,0-3.57,3.57v14.3a3.57,3.57,0,0,0,7.15,0V39.25A16.82,16.82,0,0,0,34.08,26.44H61A16.82,16.82,0,0,0,73.76,39.25v67.93H54.23a17.1,17.1,0,1,0-13.43,0H35.06A12.14,12.14,0,0,0,24,124.33h-.12a12.2,12.2,0,0,0-2.6.28V84a3.57,3.57,0,0,0-7.15,0v45.28a12.14,12.14,0,0,0,6.54,18.95,12.14,12.14,0,0,0,10.86,17.58h1.12a12.11,12.11,0,0,0,0,10H7.15Zm40.37,94.27a10,10,0,1,1,10-10,10,10,0,0,1-10,10Zm0,0"/></g></g></svg>