<svg xmlns="http://www.w3.org/2000/svg" viewBox="0 0 60.9 58.46"><defs><style>.cls-1{fill:#322b2c;}</style></defs><title>icon_popular</title><g id="Слой_2" data-name="Слой 2"><g id="Слой_1-2" data-name="Слой 1"><path class="cls-1" d="M58.81,32.47A8.34,8.34,0,0,0,60.9,26.8a7.41,7.41,0,0,0-7.31-7.31H43.05a9.53,9.53,0,0,1,.3-.91,6.39,6.39,0,0,1,.42-.84c.18-.3.3-.53.38-.68q.68-1.29,1-2.13a15.63,15.63,0,0,0,.72-2.28,11.86,11.86,0,0,0,.36-2.89q0-.91,0-1.48a16.31,16.31,0,0,0-.19-1.71,9.61,9.61,0,0,0-.46-1.9,8.89,8.89,0,0,0-.91-1.71,5.33,5.33,0,0,0-1.52-1.54A8.35,8.35,0,0,0,40.9.4,11.37,11.37,0,0,0,37.76,0,2.34,2.34,0,0,0,36,.72a6.61,6.61,0,0,0-1.29,1.9,11.36,11.36,0,0,0-.74,2q-.21.84-.48,2.32T33,9.23a12.13,12.13,0,0,1-.67,1.85,5.84,5.84,0,0,1-1.18,1.83,56.14,56.14,0,0,0-3.84,4.57q-1.87,2.44-3.84,4.61t-2.89,2.25A2.5,2.5,0,0,0,19,25.1a2.3,2.3,0,0,0-.68,1.66v24.4A2.28,2.28,0,0,0,19,52.85a2.52,2.52,0,0,0,1.71.74,27.85,27.85,0,0,1,6,1.68q2.93,1,4.59,1.5t4.62,1.1a28.27,28.27,0,0,0,5.48.59h4.91q5.06-.07,7.5-3a9.15,9.15,0,0,0,1.87-6.89A7.4,7.4,0,0,0,57.74,45a7.84,7.84,0,0,0,0-4.45,7.9,7.9,0,0,0,1.64-5.21,9.08,9.08,0,0,0-.57-2.89Zm0,0"/><path class="cls-1" d="M13.4,24.36h-11a2.34,2.34,0,0,0-1.71.72A2.34,2.34,0,0,0,0,26.8V51.16a2.34,2.34,0,0,0,.72,1.71,2.35,2.35,0,0,0,1.71.72h11a2.47,2.47,0,0,0,2.44-2.44V26.8a2.47,2.47,0,0,0-2.44-2.44ZM9,48a2.37,2.37,0,0,1-1.71.7,2.44,2.44,0,0,1-1.73-4.15,2.41,2.41,0,0,1,3.44,0A2.41,2.41,0,0,1,9,48Zm0,0"/></g></g></svg>