<svg xmlns="http://www.w3.org/2000/svg" viewBox="0 0 53.79 40.93"><defs><style>.cls-1{fill:#4e6d70;}</style></defs><title>icon_mail2</title><g id="Слой_2" data-name="Слой 2"><g id="Режим_изоляции" data-name="Режим изоляции"><path class="cls-1" d="M47.26,0H6.62A6.58,6.58,0,0,0,0,6.54V34.35a6.58,6.58,0,0,0,6.58,6.58H47.21a6.58,6.58,0,0,0,6.58-6.58h0V6.59A6.58,6.58,0,0,0,47.22,0h0Zm3.57,34.36a3.58,3.58,0,0,1-3.57,3.57H6.62A3.58,3.58,0,0,1,3,34.39V6.59A3.58,3.58,0,0,1,6.57,3H47.2a3.58,3.58,0,0,1,3.57,3.57V34.35Z"/><path class="cls-1" d="M34,20.12,47.15,8.32a1.5,1.5,0,1,0-2-2.24h0L27,22.37l-3.54-3.16h0a2.27,2.27,0,0,0-.25-.21L8.76,6.07a1.51,1.51,0,0,0-2,2.25l13.31,11.9L6.81,32.63a1.51,1.51,0,0,0-.09,2.13l0,0a1.54,1.54,0,0,0,1.1.48,1.51,1.51,0,0,0,1-.4L22.32,22.25,26,25.51a1.5,1.5,0,0,0,2,0l3.75-3.36L45.1,34.84a1.51,1.51,0,0,0,2.07-2.19Z"/></g></g></svg>