<?xml version="1.0" encoding="UTF-8" standalone="no"?>
<!DOCTYPE svg PUBLIC "-//W3C//DTD SVG 1.1//EN" "http://www.w3.org/Graphics/SVG/1.1/DTD/svg11.dtd">
<svg version="1.1" xmlns="http://www.w3.org/2000/svg" xmlns:xlink="http://www.w3.org/1999/xlink" preserveAspectRatio="none" viewbox="0 0 640 30" width="640" height="30"><defs><path d="M26.32 6.67L36.98 8.68L48.05 10.62L59.53 12.48L71.4 14.26L83.63 15.95L96.24 17.57L109.19 19.09L122.48 20.53L136.09 21.87L150.01 23.12L164.24 24.28L178.74 25.33L193.52 26.29L208.56 27.14L223.84 27.88L239.36 28.52L255.1 29.05L271.05 29.46L287.19 29.76L303.51 29.94L320 30L0 30L0 0.93L6.29 2.42L16.09 4.58L16.09 4.58L26.32 6.67ZM336.49 29.94L352.81 29.76L368.95 29.46L384.9 29.05L400.64 28.52L416.16 27.88L431.44 27.14L446.48 26.29L461.26 25.33L475.76 24.28L489.99 23.12L503.91 21.87L517.52 20.53L530.81 19.09L543.76 17.57L556.37 15.95L568.6 14.26L580.47 12.48L591.95 10.62L603.02 8.68L613.68 6.67L623.91 4.58L633.71 2.42L640 0.93L640 30L320 30L320 30L336.49 29.94Z" id="dETHv3ELR"></path></defs><g><g><g><use xlink:href="#dETHv3ELR" opacity="1" fill="#fff" fill-opacity="1"></use></g></g></g></svg>