<svg xmlns="http://www.w3.org/2000/svg" viewBox="0 0 40.8 42.37"><defs><style>.cls-1{fill:#fff;}</style></defs><title>zoom</title><g id="Слой_2" data-name="Слой 2"><g id="Режим_изоляции" data-name="Режим изоляции"><path class="cls-1" d="M22.4,16H17.6V11.2a.8.8,0,0,0-1.6,0V16H11.2a.8.8,0,0,0,0,1.6H16v4.8a.8.8,0,0,0,1.6,0V17.6h4.8a.8.8,0,0,0,0-1.6Zm0,0"/><path class="cls-1" d="M40.58,41,28.69,28.66a16.82,16.82,0,1,0-1.18,1.08L39.42,42.13a.79.79,0,0,0,.58.24A.8.8,0,0,0,40.58,41ZM1.6,16.8A15.2,15.2,0,1,1,16.8,32,15.21,15.21,0,0,1,1.6,16.8Zm0,0"/></g></g></svg>